<svg width="20" height="20" viewBox="0 0 20 20" fill="none" xmlns="http://www.w3.org/2000/svg">
<path d="M18.9383 8.97371C18.6814 6.69428 17.5597 4.59945 15.8034 3.11924C14.0471 1.63904 11.7895 0.885765 9.49407 1.01406C7.19864 1.14236 5.03951 2.1425 3.45992 3.80916C1.88033 5.47582 1.00012 7.68254 1 9.97634V16.5356C0.999995 17.1876 1.25894 17.813 1.72013 18.2749C2.18133 18.7368 2.80718 18.9975 3.46065 19H10.0349C11.3025 18.9955 12.5548 18.7238 13.7098 18.2027C14.8649 17.6815 15.8965 16.9228 16.7371 15.9762C17.5777 15.0296 18.2083 13.9164 18.5877 12.7096C18.967 11.5029 19.0865 10.2298 18.9383 8.97371Z" stroke="#9D6F70" stroke-width="2" stroke-linecap="round" stroke-linejoin="round"/>
<path d="M7.00034 10H13.0003" stroke="#9D6F70" stroke-width="2" stroke-linecap="round" stroke-linejoin="round"/>
</svg>
