<svg width="18" height="20" viewBox="0 0 18 20" fill="none" xmlns="http://www.w3.org/2000/svg">
<path d="M6.99074 1.65904L2.22519 5.45154C1.84288 5.75695 1.53329 6.15113 1.32071 6.60314C1.10813 7.05515 0.998356 7.55269 1 8.05668V15.7303C1 16.5959 1.32733 17.4263 1.91022 18.0392C2.49311 18.6521 3.28399 18.9977 4.10944 19H13.6321C14.459 19 15.2521 18.6555 15.8368 18.0423C16.4215 17.4291 16.75 16.5975 16.75 15.7303V8.05668C16.7506 7.55194 16.6396 7.05394 16.4255 6.60187C16.2114 6.14981 15.9002 5.75603 15.5163 5.45154L10.7508 1.65904C10.2089 1.23131 9.54902 1 8.87077 1C8.19252 1 7.53266 1.23131 6.99074 1.65904Z" stroke="#9D6F70" stroke-width="2" stroke-linecap="round" stroke-linejoin="round"/>
<path d="M4.76008 15.3494H12.9815" stroke="#9D6F70" stroke-width="2" stroke-linecap="round" stroke-linejoin="round"/>
</svg>
