<svg width="18" height="18" viewBox="0 0 18 18" fill="none" xmlns="http://www.w3.org/2000/svg">
<path d="M8.12988 9.86916C7.977 9.71656 7.79481 9.5965 7.59429 9.51622L1.25102 6.97251C1.17528 6.94212 1.11065 6.88929 1.0658 6.82111C1.02096 6.75293 0.998042 6.67266 1.00013 6.59108C1.00222 6.5095 1.02922 6.43051 1.07749 6.36472C1.12577 6.29892 1.19302 6.24947 1.27021 6.223L16.4685 1.0236C16.5393 0.997995 16.616 0.99311 16.6896 1.00951C16.7631 1.02591 16.8305 1.06292 16.8838 1.11621C16.9371 1.16949 16.9741 1.23685 16.9905 1.31041C17.0069 1.38396 17.002 1.46066 16.9764 1.53154L11.777 16.7298C11.7505 16.807 11.7011 16.8742 11.6353 16.9225C11.5695 16.9708 11.4905 16.9978 11.4089 16.9999C11.3273 17.002 11.2471 16.979 11.1789 16.9342C11.1107 16.8894 11.0579 16.8247 11.0275 16.749L8.48378 10.4041C8.40314 10.2037 8.28275 10.0218 8.12988 9.86916ZM8.12988 9.86916L16.8812 1.11958" stroke="white" stroke-width="2" stroke-linecap="round" stroke-linejoin="round"/>
</svg>
