<svg width="18" height="21" viewBox="0 0 18 21" fill="none" xmlns="http://www.w3.org/2000/svg">
<path d="M9 10.1429C11.5247 10.1429 13.5714 8.09616 13.5714 5.57143C13.5714 3.0467 11.5247 1 9 1C6.47527 1 4.42857 3.0467 4.42857 5.57143C4.42857 8.09616 6.47527 10.1429 9 10.1429Z" stroke="#BAB0B1" stroke-width="2" stroke-linecap="round" stroke-linejoin="round"/>
<path d="M1.00415 19.2857C0.969605 18.0991 1.15086 16.9169 1.53714 15.8094C1.92342 14.7019 2.50684 13.6917 3.25273 12.8388C3.99863 11.9859 4.89178 11.3078 5.87909 10.8446C6.8664 10.3815 7.92773 10.1428 9 10.1428C10.0723 10.1428 11.1336 10.3815 12.1209 10.8446C13.1082 11.3078 14.0014 11.9859 14.7473 12.8388C15.4932 13.6917 16.0766 14.7019 16.4629 15.8094C16.8491 16.9169 17.0304 18.0991 16.9958 19.2857" stroke="#BAB0B1" stroke-width="2" stroke-linecap="round" stroke-linejoin="round"/>
</svg>
