<svg width="100" height="100" viewBox="0 0 100 100" fill="none" xmlns="http://www.w3.org/2000/svg">
<mask id="mask0_777_3068" style="mask-type:alpha" maskUnits="userSpaceOnUse" x="0" y="0" width="100" height="100">
<circle cx="50" cy="50" r="50" fill="#D3CDCD"/>
</mask>
<g mask="url(#mask0_777_3068)">
<path fill-rule="evenodd" clip-rule="evenodd" d="M59.991 60.8919C66.0836 57.3914 70.1867 50.8189 70.1867 43.2881C70.1867 32.0833 61.1034 23 49.8986 23C38.6938 23 29.6105 32.0833 29.6105 43.2881C29.6105 50.7004 33.5855 57.1843 39.5201 60.7243C38.2084 61.1499 36.9173 61.6599 35.6535 62.2527C31.2718 64.3081 27.308 67.3179 23.9977 71.103C20.6874 74.8882 18.0981 79.3716 16.3838 84.2866C14.6695 89.2017 13.8651 94.4482 14.0184 99.7143H84.99C85.1433 94.4482 84.3389 89.2017 82.6246 84.2866C80.9103 79.3716 78.321 74.8882 75.0107 71.103C71.7004 67.3179 67.7366 64.3081 63.3549 62.2527C62.2529 61.7357 61.1301 61.2818 59.991 60.8919Z" fill="#EFEDED"/>
</g>
</svg>
