<svg width="22" height="19" viewBox="0 0 22 19" fill="none" xmlns="http://www.w3.org/2000/svg">
<path d="M9.74775 12.9193L1.65143 8.05205C1.45893 7.97624 1.2941 7.84634 1.17805 7.67899C1.062 7.51165 1 7.31446 1 7.11269C1 6.91092 1.062 6.71373 1.17805 6.54639C1.2941 6.37904 1.45893 6.24914 1.65143 6.17333L9.74775 1.31485C10.1335 1.10832 10.5667 1 11.0072 1C11.4476 1 11.8809 1.10832 12.2666 1.31485L20.3629 6.17333C20.552 6.25224 20.7132 6.38329 20.8264 6.55025C20.9396 6.71721 21 6.91276 21 7.11269C21 7.31262 20.9396 7.50817 20.8264 7.67513C20.7132 7.84209 20.552 7.97314 20.3629 8.05205L12.2666 12.9193C11.8784 13.1182 11.4461 13.2222 11.0072 13.2222C10.5683 13.2222 10.1359 13.1182 9.74775 12.9193Z" stroke="#9D6F70" stroke-width="2" stroke-miterlimit="10"/>
<path d="M19.8891 13.1111L12.778 17.1357C12.232 17.4111 11.619 17.5555 10.996 17.5555C10.3729 17.5555 9.75998 17.4111 9.21398 17.1357L2.11133 13.1111" stroke="#9D6F70" stroke-width="2" stroke-linecap="round" stroke-linejoin="round"/>
</svg>
