<svg width="44" height="44" viewBox="0 0 44 44" fill="none" xmlns="http://www.w3.org/2000/svg">
<circle cx="22" cy="22" r="19" transform="matrix(1 0 0 -1 0 44)" stroke="#FEFEFE" stroke-width="6"/>
<mask id="path-2-inside-1_877_4408" fill="white">
<path d="M44 22C44 24.8891 43.431 27.7499 42.3253 30.419C41.2197 33.0882 39.5992 35.5135 37.5564 37.5563C35.5135 39.5992 33.0882 41.2197 30.419 42.3254C27.7499 43.431 24.8891 44 22 44L22 37.9913C24.1 37.9913 26.1794 37.5776 28.1196 36.774C30.0597 35.9704 31.8226 34.7925 33.3075 33.3075C34.7925 31.8226 35.9704 30.0597 36.774 28.1196C37.5776 26.1794 37.9913 24.1 37.9913 22H44Z"/>
</mask>
<path d="M44 22C44 24.8891 43.431 27.7499 42.3253 30.419C41.2197 33.0882 39.5992 35.5135 37.5564 37.5563C35.5135 39.5992 33.0882 41.2197 30.419 42.3254C27.7499 43.431 24.8891 44 22 44L22 37.9913C24.1 37.9913 26.1794 37.5776 28.1196 36.774C30.0597 35.9704 31.8226 34.7925 33.3075 33.3075C34.7925 31.8226 35.9704 30.0597 36.774 28.1196C37.5776 26.1794 37.9913 24.1 37.9913 22H44Z" stroke="#D3CDCD" stroke-width="16" mask="url(#path-2-inside-1_877_4408)"/>
</svg>
