<svg width="44" height="44" viewBox="0 0 44 44" fill="none" xmlns="http://www.w3.org/2000/svg">
<circle cx="22" cy="22" r="19" transform="matrix(-1 0 0 1 44 0)" stroke="#FEFEFE" stroke-width="6"/>
<mask id="path-2-inside-1_877_4416" fill="white">
<path d="M0 22C0 19.1109 0.569046 16.2501 1.67465 13.581C2.78025 10.9118 4.40076 8.48654 6.44365 6.44365C8.48654 4.40076 10.9118 2.78025 13.581 1.67465C16.2501 0.569047 19.1109 -1.26286e-07 22 0L22 6.00873C19.9 6.00873 17.8206 6.42236 15.8804 7.226C13.9403 8.02963 12.1774 9.20754 10.6925 10.6925C9.20754 12.1774 8.02963 13.9403 7.226 15.8804C6.42236 17.8206 6.00874 19.9 6.00874 22H0Z"/>
</mask>
<path d="M0 22C0 19.1109 0.569046 16.2501 1.67465 13.581C2.78025 10.9118 4.40076 8.48654 6.44365 6.44365C8.48654 4.40076 10.9118 2.78025 13.581 1.67465C16.2501 0.569047 19.1109 -1.26286e-07 22 0L22 6.00873C19.9 6.00873 17.8206 6.42236 15.8804 7.226C13.9403 8.02963 12.1774 9.20754 10.6925 10.6925C9.20754 12.1774 8.02963 13.9403 7.226 15.8804C6.42236 17.8206 6.00874 19.9 6.00874 22H0Z" stroke="#D3CDCD" stroke-width="16" mask="url(#path-2-inside-1_877_4416)"/>
</svg>
