<svg width="44" height="44" viewBox="0 0 44 44" fill="none" xmlns="http://www.w3.org/2000/svg">
<circle cx="22" cy="22" r="19" stroke="#FEFEFE" stroke-width="6"/>
<mask id="path-2-inside-1_877_4404" fill="white">
<path d="M44 22C44 19.1109 43.431 16.2501 42.3253 13.581C41.2197 10.9118 39.5992 8.48654 37.5564 6.44365C35.5135 4.40076 33.0882 2.78025 30.419 1.67465C27.7499 0.569047 24.8891 -1.26286e-07 22 0L22 6.00873C24.1 6.00873 26.1794 6.42236 28.1196 7.226C30.0597 8.02963 31.8226 9.20754 33.3075 10.6925C34.7925 12.1774 35.9704 13.9403 36.774 15.8804C37.5776 17.8206 37.9913 19.9 37.9913 22H44Z"/>
</mask>
<path d="M44 22C44 19.1109 43.431 16.2501 42.3253 13.581C41.2197 10.9118 39.5992 8.48654 37.5564 6.44365C35.5135 4.40076 33.0882 2.78025 30.419 1.67465C27.7499 0.569047 24.8891 -1.26286e-07 22 0L22 6.00873C24.1 6.00873 26.1794 6.42236 28.1196 7.226C30.0597 8.02963 31.8226 9.20754 33.3075 10.6925C34.7925 12.1774 35.9704 13.9403 36.774 15.8804C37.5776 17.8206 37.9913 19.9 37.9913 22H44Z" stroke="#D3CDCD" stroke-width="16" mask="url(#path-2-inside-1_877_4404)"/>
</svg>
