<svg width="44" height="44" viewBox="0 0 44 44" fill="none" xmlns="http://www.w3.org/2000/svg">
<circle cx="22" cy="22" r="19" transform="rotate(180 22 22)" stroke="#FEFEFE" stroke-width="6"/>
<mask id="path-2-inside-1_877_4412" fill="white">
<path d="M0 22C0 24.8891 0.569046 27.7499 1.67465 30.419C2.78025 33.0882 4.40076 35.5135 6.44365 37.5563C8.48654 39.5992 10.9118 41.2197 13.581 42.3254C16.2501 43.431 19.1109 44 22 44L22 37.9913C19.9 37.9913 17.8206 37.5776 15.8804 36.774C13.9403 35.9704 12.1774 34.7925 10.6925 33.3075C9.20754 31.8226 8.02963 30.0597 7.226 28.1196C6.42236 26.1794 6.00874 24.1 6.00874 22H0Z"/>
</mask>
<path d="M0 22C0 24.8891 0.569046 27.7499 1.67465 30.419C2.78025 33.0882 4.40076 35.5135 6.44365 37.5563C8.48654 39.5992 10.9118 41.2197 13.581 42.3254C16.2501 43.431 19.1109 44 22 44L22 37.9913C19.9 37.9913 17.8206 37.5776 15.8804 36.774C13.9403 35.9704 12.1774 34.7925 10.6925 33.3075C9.20754 31.8226 8.02963 30.0597 7.226 28.1196C6.42236 26.1794 6.00874 24.1 6.00874 22H0Z" stroke="#D3CDCD" stroke-width="16" mask="url(#path-2-inside-1_877_4412)"/>
</svg>
