<svg width="32" height="26" viewBox="0 0 128 108" fill="none" xmlns="http://www.w3.org/2000/svg">
<g clip-path="url(#clip0_695_1366)">
<path d="M89.5888 104.384C82.2829 104.384 73.8993 100.237 67.0317 94.5206C62.4843 97.8111 57.4321 100.34 52.0728 102.009C46.0011 104.013 39.57 104.689 33.2142 103.993C26.8585 103.297 20.7264 101.244 15.2326 97.9726C13.7498 97.0796 12.3607 96.0393 11.0865 94.8676C11.0865 94.8676 11.0865 94.8676 10.9404 94.8676C10.283 94.4586 9.67072 93.981 9.11393 93.443C8.69383 93.0594 8.29201 92.6028 7.89018 92.1644L7.26918 91.5069C6.30061 90.5494 5.47066 89.4613 4.80342 88.274C4.73153 88.1652 4.65219 88.0614 4.56598 87.9635C3.96317 87.2158 3.45974 86.3931 3.06826 85.516C-5.91804 64.7124 6.44726 40.4201 22.6664 25.5708C41.3879 8.36533 61.3696 0.255739 85.4975 3.15855e-05C86.3601 -0.0160991 87.2208 0.0884125 88.0546 0.310534C88.8344 0.178368 89.6309 0.178368 90.4107 0.310534C97.9176 1.86305 104.676 3.653 111.324 9.84478C119.214 17.1507 126.739 36.5114 118.63 56.4201C116.668 61.6403 114.099 66.6119 110.977 71.2329C110.578 71.854 110.058 72.3881 109.447 72.8031C108.837 73.2182 108.149 73.5056 107.425 73.6482C106.701 73.7908 105.955 73.7856 105.233 73.6329C104.511 73.4802 103.827 73.1831 103.222 72.7596C102.618 72.3361 102.105 71.7947 101.715 71.1681C101.325 70.5415 101.065 69.8426 100.952 69.1132C100.839 68.3838 100.874 67.639 101.055 66.9236C101.237 66.2082 101.561 65.5368 102.009 64.9498C104.676 61.0204 106.871 56.7903 108.548 52.3471C114.776 36.8767 108.548 22.2649 103.854 17.8813C99.1596 13.4977 94.9404 12.4019 88.7851 11.1781C87.9986 11.3025 87.1973 11.3025 86.4107 11.1781L85.6801 10.9589H85.4975C64.2737 11.2146 46.6664 18.411 30.0637 33.6256C17.1687 45.4612 6.31941 65.2968 12.9861 80.9863L13.2053 81.2603C13.6207 81.79 13.9932 82.3519 14.3194 82.9407C14.4903 83.2075 14.6926 83.4528 14.9221 83.6713L15.8902 84.7124C16.0911 84.9315 16.2737 85.1507 16.4929 85.3516L16.6756 85.4612C17.2715 85.8107 17.8339 86.2142 18.3559 86.6667C19.1422 87.3872 19.9919 88.0351 20.8947 88.6028C25.0676 91.0642 29.7205 92.6006 34.5387 93.108C39.3568 93.6153 44.2276 93.0817 48.8217 91.5434C52.5119 90.3879 56.0223 88.7218 59.2509 86.5936C55.9877 82.8382 53.7704 78.2902 52.8217 73.4064C51.8536 65.8265 53.7532 58.7946 58.0637 54.3014C59.6031 52.7365 61.436 51.4907 63.4575 50.635C65.479 49.7794 67.6494 49.3309 69.8445 49.3151H70.0089C71.8472 49.2841 73.673 49.6239 75.377 50.3143C77.081 51.0047 78.6284 52.0315 79.9267 53.3334C85.6984 59.2146 85.7167 69.2055 82.8308 75.6347C80.9135 79.8217 78.3835 83.6998 75.324 87.1416C80.1824 90.9589 85.6984 93.8083 90.0637 93.516C91.5169 93.4312 92.9443 93.9272 94.0319 94.8949C95.1194 95.8625 95.778 97.2226 95.8628 98.6758C95.9475 100.129 95.4516 101.556 94.4839 102.644C93.5162 103.732 92.1562 104.39 90.703 104.475L89.5888 104.384ZM69.9906 60.1644C68.5177 60.1807 67.109 60.7703 66.0637 61.8083C64.9778 63.2464 64.2081 64.8978 63.8052 66.6542C63.4023 68.4106 63.3752 70.2324 63.7258 72C64.383 74.7141 65.7006 77.2238 67.5614 79.306C69.7093 76.7952 71.498 73.9983 72.8765 70.9955C74.3925 67.6347 74.0454 62.8128 72.1459 60.8767C71.5459 60.3709 70.7739 60.1157 69.9906 60.1644Z" fill="#9D6F70"/>
<path d="M109.297 107.872C108.104 107.876 106.942 107.49 105.988 106.774C105.034 106.057 104.34 105.049 104.012 103.902C103.683 102.755 103.738 101.532 104.168 100.419C104.597 99.3059 105.379 98.3636 106.393 97.7351C107.434 97.0959 108.42 96.4018 109.388 95.6712C106.904 95.4703 105.206 95.2876 105.041 95.2694C103.588 95.1095 102.258 94.3789 101.343 93.2383C100.429 92.0976 100.005 90.6404 100.164 89.1872C100.324 87.7339 101.055 86.4037 102.196 85.4892C103.336 84.5746 104.793 84.1506 106.247 84.3105C111.617 84.8668 117.012 85.1473 122.411 85.1507H122.521C123.558 85.1512 124.573 85.4461 125.449 86.001C126.326 86.5559 127.026 87.348 127.47 88.2853C127.914 89.2226 128.082 90.2666 127.956 91.296C127.83 92.3254 127.415 93.2979 126.758 94.1004C122.532 99.0468 117.61 103.353 112.146 106.886C111.307 107.475 110.32 107.816 109.297 107.872Z" fill="#9D6F70"/>
</g>
<defs>
<clipPath id="clip0_695_1366">
<rect width="128" height="107.872" fill="white"/>
</clipPath>
</defs>
</svg>
