<?xml version="1.0" standalone="no"?>
<!DOCTYPE svg PUBLIC "-//W3C//DTD SVG 20010904//EN"
 "http://www.w3.org/TR/2001/REC-SVG-20010904/DTD/svg10.dtd">
<svg version="1.0" xmlns="http://www.w3.org/2000/svg"
 width="992.000000pt" height="709.000000pt" viewBox="0 0 992.000000 709.000000"
 preserveAspectRatio="xMidYMid meet">

<g transform="translate(0.000000,709.000000) scale(0.100000,-0.100000)"
fill="#000000" stroke="none">
<path d="M4020 6823 c-65 -7 -182 -34 -214 -48 -38 -18 -123 -78 -152 -108
-12 -12 -35 -49 -53 -82 l-32 -60 66 70 c37 39 76 80 87 93 23 25 48 29 48 7
0 -8 -21 -42 -47 -76 -27 -33 -57 -75 -67 -92 -11 -18 -35 -52 -53 -77 -19
-25 12 4 70 63 90 93 106 106 117 92 10 -13 3 -25 -46 -81 -91 -103 -234 -294
-256 -344 -12 -25 -27 -58 -36 -74 -23 -45 1 -27 56 43 29 35 73 78 99 95 93
62 152 126 189 205 36 79 42 107 22 114 -9 3 -10 8 -3 18 6 8 12 26 14 42 2
22 -2 27 -18 27 -12 0 -21 4 -21 8 0 4 21 7 46 7 51 -2 40 8 -21 20 l-40 8 30
13 c17 7 41 14 55 14 l25 1 -25 11 -25 10 23 9 c12 5 25 15 28 22 4 10 17 13
45 10 25 -3 39 -1 39 7 0 6 -5 8 -12 4 -7 -5 -8 -3 -3 6 5 9 25 11 66 7 33 -3
57 -1 54 3 -9 14 53 -7 102 -35 39 -21 44 -22 29 -6 -27 30 -93 61 -124 59
-15 0 -43 -3 -62 -5z m-225 -93 c3 -5 1 -10 -4 -10 -6 0 -11 5 -11 10 0 6 2
10 4 10 3 0 8 -4 11 -10z"/>
<path d="M4227 6773 c7 -19 32 -42 46 -43 10 0 -12 42 -27 52 -18 13 -26 9
-19 -9z"/>
<path d="M4297 6743 c-10 -10 -8 -23 3 -23 18 0 51 -40 44 -53 -4 -7 -4 -9 1
-5 12 11 35 -11 35 -33 0 -12 10 -21 25 -25 14 -3 25 -9 25 -13 0 -10 34 -7
38 2 6 19 1 31 -8 17 -8 -12 -10 -11 -10 6 0 22 -27 49 -78 80 -18 10 -32 24
-32 32 0 7 -5 10 -11 6 -6 -3 -14 -1 -18 5 -4 6 -10 8 -14 4z m100 -105 c-3
-8 -6 -5 -6 6 -1 11 2 17 5 13 3 -3 4 -12 1 -19z"/>
<path d="M4300 6590 c0 -5 -15 -13 -32 -19 -49 -16 -84 -51 -80 -80 5 -29 25
-52 50 -54 19 -1 30 -47 12 -47 -6 0 -15 -10 -21 -22 -9 -21 -18 -23 -91 -25
-44 -2 -92 -9 -107 -16 -50 -25 -146 -79 -154 -87 -5 -4 -2 -27 6 -51 13 -38
19 -43 48 -46 47 -5 61 -11 54 -23 -5 -8 19 -56 35 -70 8 -7 8 -60 0 -60 -3 0
-10 3 -15 8 -6 4 -9 5 -8 3 5 -8 -42 -42 -66 -48 -33 -7 -52 -23 -45 -34 3 -5
-1 -9 -9 -9 -8 0 -18 -11 -21 -25 -7 -27 -20 -32 -32 -13 -4 7 -3 8 4 4 7 -4
12 -3 12 3 0 5 -7 14 -16 19 -32 18 -45 149 -20 218 7 22 16 87 20 147 6 93 5
107 -8 107 -9 0 -16 -6 -16 -14 0 -15 -164 -158 -193 -169 -9 -4 -20 -15 -24
-24 -4 -10 -20 -39 -37 -65 -17 -25 -42 -65 -56 -87 -13 -23 -30 -41 -37 -41
-17 0 -35 36 -32 63 2 12 -7 41 -19 63 -11 23 -19 44 -16 47 5 4 -10 42 -22
56 -2 2 -18 -6 -36 -17 -18 -11 -83 -39 -144 -61 -61 -23 -165 -66 -230 -97
-125 -59 -491 -196 -639 -239 -48 -14 -113 -25 -144 -25 -120 -1 -192 -17
-286 -64 -98 -49 -149 -89 -343 -273 -79 -74 -150 -132 -183 -148 -86 -44
-135 -82 -149 -115 -31 -74 21 -346 120 -635 101 -291 225 -571 375 -846 37
-68 74 -150 81 -182 15 -60 49 -134 85 -178 63 -79 47 -394 -36 -713 -19 -72
-53 -216 -75 -321 -23 -104 -52 -242 -66 -305 -15 -63 -39 -173 -54 -245 -16
-71 -56 -240 -89 -375 -74 -297 -74 -297 -99 -389 -17 -67 -18 -82 -7 -135 18
-87 57 -167 122 -255 31 -42 77 -104 102 -138 140 -189 174 -233 180 -233 3 0
59 18 125 40 125 42 366 117 706 220 322 98 462 154 588 237 62 42 82 75 82
140 1 52 33 259 42 268 3 3 137 -9 297 -26 253 -28 291 -35 285 -48 -4 -9 -10
-90 -15 -181 -10 -191 -28 -281 -117 -595 -11 -38 -29 -106 -41 -151 -11 -44
-23 -88 -27 -97 -6 -16 39 -17 688 -17 l694 0 72 143 c40 78 99 178 132 222
33 44 61 85 63 90 5 15 53 -13 104 -60 58 -54 103 -133 153 -271 24 -64 48
-118 54 -120 6 -2 324 -3 707 -2 l696 3 -54 165 c-48 142 -56 177 -57 250 -2
61 -8 95 -21 120 -10 19 -40 96 -65 170 -222 640 -277 802 -336 987 l-67 212
43 51 c43 51 44 55 24 119 l-7 25 30 -22 c22 -15 54 -68 108 -174 43 -84 96
-179 117 -211 128 -188 586 -779 971 -1251 80 -98 147 -166 164 -166 81 0 294
211 652 648 l44 53 19 -31 c13 -23 25 -30 41 -28 19 3 24 15 40 93 26 121 27
125 38 96 6 -16 4 -40 -6 -74 -23 -76 -20 -112 11 -136 15 -12 30 -21 34 -21
14 0 69 172 77 243 5 39 8 45 20 35 8 -6 25 -33 38 -59 22 -43 76 -99 95 -99
5 0 15 3 23 6 16 6 11 37 -11 80 -5 10 -31 65 -57 121 l-47 102 26 32 27 32
-98 96 c-54 53 -163 168 -242 256 -79 88 -281 300 -450 470 -169 171 -338 346
-375 390 -38 44 -146 163 -242 265 -95 102 -199 218 -231 258 -32 39 -177 219
-323 399 -145 180 -338 418 -428 528 -89 110 -256 315 -369 455 -251 310 -461
523 -618 629 -111 74 -156 93 -280 115 -44 7 -91 18 -105 24 -56 22 -130 24
-239 6 l-110 -17 -129 47 c-71 26 -176 60 -233 74 l-103 27 0 47 c-1 26 3 47
8 47 13 -1 52 77 61 121 3 19 25 91 47 159 l40 125 -13 76 c-9 57 -9 81 0 97
14 27 14 103 0 140 -5 15 -21 38 -34 50 -15 15 -27 42 -34 80 -25 129 -52 181
-116 217 -47 26 -135 49 -135 36z m56 -478 c15 -9 84 -92 84 -100 0 -16 -69
-52 -99 -52 -24 0 -42 -9 -67 -34 -41 -41 -49 -33 -30 26 8 24 17 59 20 78 11
63 58 105 92 82z m-223 -127 c4 -8 1 -17 -5 -21 -7 -4 -8 -3 -4 4 4 7 2 12 -3
12 -6 0 -11 -5 -11 -10 0 -6 -8 -5 -20 2 -18 12 -19 13 -2 20 27 11 39 9 45
-7z m344 -60 c-4 -8 -11 -15 -17 -15 -6 0 -6 7 2 20 14 22 24 19 15 -5z m-160
-80 c18 -3 35 -10 38 -15 8 -14 -142 -82 -164 -75 -13 4 -38 -13 -90 -64 -39
-39 -71 -78 -71 -87 0 -10 -5 -14 -15 -10 -11 4 -15 -1 -15 -17 0 -17 -2 -19
-9 -7 -6 8 -7 18 -4 23 3 5 -4 4 -15 -2 -17 -9 -19 -8 -15 7 2 10 -6 27 -21
41 -24 23 -26 23 -26 5 -1 -16 -3 -15 -14 6 -8 14 -12 28 -10 31 2 4 -5 5 -16
2 -29 -8 -25 16 5 27 14 5 25 12 25 15 0 4 -4 4 -9 0 -5 -3 -12 -2 -15 3 -2 4
28 7 67 7 40 -1 76 1 82 4 5 3 19 5 30 6 11 0 19 6 17 13 -1 8 2 11 7 7 6 -3
27 10 48 29 21 19 54 41 73 49 34 14 45 14 117 2z m-22 -152 c-11 -3 -24 -9
-29 -14 -6 -5 -28 -9 -50 -9 -24 0 -36 4 -30 9 13 13 42 19 89 19 22 0 31 -2
20 -5z m-354 -70 c13 -16 12 -17 -3 -4 -10 7 -18 15 -18 17 0 8 8 3 21 -13z
m175 -98 c-1 -9 -6 -15 -12 -14 -39 6 -47 29 -10 29 16 0 23 -5 22 -15z m109
6 c3 -5 1 -12 -5 -16 -5 -3 -10 1 -10 9 0 18 6 21 15 7z"/>
</g>
</svg>
