<svg width="48" height="48" viewBox="0 0 48 48" fill="none" xmlns="http://www.w3.org/2000/svg">
<rect width="48" height="48" rx="24" fill="#9D6F70"/>
<path d="M22.1299 25.8692C21.977 25.7166 21.7948 25.5965 21.5943 25.5162L15.251 22.9725C15.1753 22.9421 15.1106 22.8893 15.0658 22.8211C15.021 22.7529 14.998 22.6727 15.0001 22.5911C15.0022 22.5095 15.0292 22.4305 15.0775 22.3647C15.1258 22.2989 15.193 22.2495 15.2702 22.223L30.4685 17.0236C30.5393 16.998 30.616 16.9931 30.6896 17.0095C30.7631 17.0259 30.8305 17.0629 30.8838 17.1162C30.9371 17.1695 30.9741 17.2369 30.9905 17.3104C31.0069 17.384 31.002 17.4607 30.9764 17.5315L25.777 32.7298C25.7505 32.807 25.7011 32.8742 25.6353 32.9225C25.5695 32.9708 25.4905 32.9978 25.4089 32.9999C25.3273 33.002 25.2471 32.979 25.1789 32.9342C25.1107 32.8894 25.0579 32.8247 25.0275 32.749L22.4838 26.4041C22.4031 26.2037 22.2827 26.0218 22.1299 25.8692ZM22.1299 25.8692L30.8812 17.1196" stroke="white" stroke-width="2" stroke-linecap="round" stroke-linejoin="round"/>
</svg>
